# xmcd CD database file
#
# Track frame offsets:
#	150
#	61705
#	88832
#	136162
#	169720
#	198625
#	239297
#
# Disc length: 3474 seconds
#
# Revision: 0
# Processed by: cddbd v1.5.1PL0 Copyright (c) Steve Scherf et al.
# Submitted via: CDex 1.50beta10
#
DISCID=580d9007
DTITLE=Jeremy Steug - What's New at F
DYEAR=2004
DGENRE=Jazz
TTITLE0=Nardis
TTITLE1=My Foolish Heart
TTITLE2=Wutchcraft
TTITLE3=Straight No Chaser
TTITLE4=Time Remembered
TTITLE5=Five
TTITLE6=What's New
EXTD=YEAR: 2004
EXTT0=
EXTT1=
EXTT2=
EXTT3=
EXTT4=
EXTT5=
EXTT6=
PLAYORDER=
